<svg xmlns="http://www.w3.org/2000/svg" xmlns:xlink="http://www.w3.org/1999/xlink" width="59" height="59" viewBox="0 0 59 59">
  <defs>
    <filter id="Ellipse_28" x="0" y="0" width="59" height="59" filterUnits="userSpaceOnUse">
      <feOffset dx="-3" dy="3" input="SourceAlpha"/>
      <feGaussianBlur result="blur"/>
      <feFlood/>
      <feComposite operator="in" in2="blur"/>
      <feComposite in="SourceGraphic"/>
    </filter>
  </defs>
  <g id="Pause_Todo" data-name="Pause Todo" transform="translate(3)">
    <g transform="matrix(1, 0, 0, 1, -3, 0)" filter="url(#Ellipse_28)">
      <circle id="Ellipse_28-2" data-name="Ellipse 28" cx="28" cy="28" r="28" transform="translate(3)" fill="#0061ee"/>
    </g>
    <rect id="Rechteck_45" data-name="Rechteck 45" width="8" height="22" rx="4" transform="translate(18 17)" fill="#fff"/>
    <rect id="Rechteck_48" data-name="Rechteck 48" width="7" height="22" rx="3.5" transform="translate(33 17)" fill="#fff"/>
    <path id="Schnittmenge_7" data-name="Schnittmenge 7" d="M0,3.434A3.505,3.505,0,0,1,2.8,0a3.506,3.506,0,0,1,2.8,3.434v2.8A3.5,3.5,0,0,1,0,3.434Z" transform="translate(33.648 17.515)"/>
    <path id="Schnittmenge_8" data-name="Schnittmenge 8" d="M0,3.434A3.505,3.505,0,0,1,2.8,0a3.506,3.506,0,0,1,2.8,3.434v2.8A3.5,3.5,0,0,1,0,3.434Z" transform="translate(19.628 17.515)"/>
  </g>
</svg>
