<svg id="Star" xmlns="http://www.w3.org/2000/svg" width="57" height="62.04" viewBox="0 0 57 62.04">
  <path id="Polygon_4" data-name="Polygon 4" d="M25.042,5.945a4,4,0,0,1,6.915,0L53.5,42.989A4,4,0,0,1,50.046,49H6.954A4,4,0,0,1,3.5,42.989Z" transform="translate(57 62.04) rotate(180)" fill="#fece00"/>
  <path id="Pfad_19" data-name="Pfad 19" d="M22.094,1.989a4,4,0,0,1,6.915,0L50.556,39.033A4,4,0,0,1,47.1,45.044H4.006A4,4,0,0,1,.548,39.033Z" transform="translate(2.948)" fill="#fece00"/>
  <g id="Komponente_1_6" data-name="Komponente 1 – 6" transform="matrix(1, -0.017, 0.017, 1, 4.983, 18.087)">
    <ellipse id="Ellipse_5" data-name="Ellipse 5" cx="8.767" cy="8.348" rx="8.767" ry="8.348" fill="#fff"/>
    <ellipse id="Ellipse_6" data-name="Ellipse 6" cx="3.767" cy="3.348" rx="3.767" ry="3.348" transform="translate(5 5)"/>
  </g>
  <g id="Augen_zu" data-name="Augen zu" transform="translate(47.606 28.195) rotate(180)">
    <path id="Pfad_3" data-name="Pfad 3" d="M194.533,200.658a8.417,8.417,0,0,1,8.521-5.669c6.821.167,8.085,5.669,8.085,5.669" transform="translate(-194.533 -194.986)" fill="none" stroke="#000" stroke-linecap="round" stroke-linejoin="bevel" stroke-width="3"/>
  </g>
</svg>
